<svg xmlns="http://www.w3.org/2000/svg" xmlns:xlink="http://www.w3.org/1999/xlink" xmlns:lucid="lucid" width="651" height="410"><g transform="translate(-60 -60)" lucid:page-tab-id="0_0"><path d="M0 0h1760v1360H0z" fill="#fff"/><path d="M80 80h240v80H80z" stroke="#666" fill="#fff8e1"/><use xlink:href="#a" transform="matrix(1,0,0,1,85,85) translate(43.64999999999999 38.4625)"/><use xlink:href="#b" transform="matrix(1,0,0,1,85,85) translate(105.55 38.4625)"/><use xlink:href="#c" transform="matrix(1,0,0,1,85,85) translate(148.5 38.4625)"/><path d="M380 80h240v80H380z" stroke="#666" fill="#fff8e1"/><use xlink:href="#d" transform="matrix(1,0,0,1,385,85) translate(28.64999999999999 38.4625)"/><use xlink:href="#e" transform="matrix(1,0,0,1,385,85) translate(111.5 38.4625)"/><path d="M321.5 120H361" stroke="#666" stroke-width="2" fill="none"/><path d="M321.53 121h-1.03v-2h1.03z" fill="#666"/><path d="M376.26 120L362 124.64v-9.28z" stroke="#666" stroke-width="2" fill="#666"/><path d="M380 220h240v80H380z" stroke="#666" fill="#fff8e1"/><use xlink:href="#f" transform="matrix(1,0,0,1,385,225) translate(71.07499999999999 38.4625)"/><use xlink:href="#g" transform="matrix(1,0,0,1,385,225) translate(117.02499999999999 38.4625)"/><path d="M380 360h240v80H380z" stroke="#666" fill="#fff8e1"/><use xlink:href="#h" transform="matrix(1,0,0,1,385,365) translate(64.125 38.4625)"/><path d="M500 161.5V201" stroke="#666" stroke-width="2" fill="none"/><path d="M501 161.53h-2v-1.03h2z" fill="#666"/><path d="M500 216.26L495.36 202h9.28z" stroke="#666" stroke-width="2" fill="#666"/><path d="M250 400c0 27.6-22.4 50-50 50s-50-22.4-50-50 22.4-50 50-50 50 22.4 50 50z" stroke="#666" fill="#f3e5f5"/><use xlink:href="#i" transform="matrix(1,0,0,1,155,355) translate(29 36.9)"/><use xlink:href="#j" transform="matrix(1,0,0,1,155,355) translate(14.524999999999999 58.5)"/><path d="M378.5 400H269" stroke="#666" stroke-width="2" fill="none"/><path d="M379.5 401h-1.03v-2h1.03z" fill="#666"/><path d="M253.74 400l14.26-4.64v9.28z" stroke="#666" stroke-width="2" fill="#666"/><path d="M500 301.5V341" stroke="#666" stroke-width="2" fill="none"/><path d="M501 301.53h-2v-1.03h2z" fill="#666"/><path d="M500 356.26L495.36 342h9.28z" stroke="#666" stroke-width="2" fill="#666"/><path d="M639 260h41v125.84h-41" stroke="#666" stroke-width="2" fill="none"/><path d="M623.74 260l14.26-4.64v9.28zM623.74 385.84L638 381.2v9.27z" stroke="#666" stroke-width="2" fill="#666"/><path d="M639 118.08h61v304.34h-61" stroke="#666" stroke-width="2" fill="none"/><path d="M623.74 118.08l14.26-4.64v9.27zM623.74 422.42L638 417.8v9.26z" stroke="#666" stroke-width="2" fill="#666"/><defs><path d="M30-248c118-7 216 8 213 122C240-48 200 0 122 0H30v-248zM63-27c89 8 146-16 146-99s-60-101-146-95v194" id="k"/><path d="M100-194c63 0 86 42 84 106H49c0 40 14 67 53 68 26 1 43-12 49-29l28 8c-11 28-37 45-77 45C44 4 14-33 15-96c1-61 26-98 85-98zm52 81c6-60-76-77-97-28-3 7-6 17-6 28h103" id="l"/><path d="M101-234c-31-9-42 10-38 44h38v23H63V0H32v-167H5v-23h27c-7-52 17-82 69-68v24" id="m"/><path d="M141-36C126-15 110 5 73 4 37 3 15-17 15-53c-1-64 63-63 125-63 3-35-9-54-41-54-24 1-41 7-42 31l-33-3c5-37 33-52 76-52 45 0 72 20 72 64v82c-1 20 7 32 28 27v20c-31 9-61-2-59-35zM48-53c0 20 12 33 32 33 41-3 63-29 60-74-43 2-92-5-92 41" id="n"/><path d="M84 4C-5 8 30-112 23-190h32v120c0 31 7 50 39 49 72-2 45-101 50-169h31l1 190h-30c-1-10 1-25-2-33-11 22-28 36-60 37" id="o"/><path d="M24 0v-261h32V0H24" id="p"/><path d="M59-47c-2 24 18 29 38 22v24C64 9 27 4 27-40v-127H5v-23h24l9-43h21v43h35v23H59v120" id="q"/><g id="a"><use transform="matrix(0.05,0,0,0.05,0,0)" xlink:href="#k"/><use transform="matrix(0.05,0,0,0.05,12.950000000000001,0)" xlink:href="#l"/><use transform="matrix(0.05,0,0,0.05,22.950000000000003,0)" xlink:href="#m"/><use transform="matrix(0.05,0,0,0.05,27.950000000000003,0)" xlink:href="#n"/><use transform="matrix(0.05,0,0,0.05,37.95,0)" xlink:href="#o"/><use transform="matrix(0.05,0,0,0.05,47.95,0)" xlink:href="#p"/><use transform="matrix(0.05,0,0,0.05,51.900000000000006,0)" xlink:href="#q"/></g><path d="M185-189c-5-48-123-54-124 2 14 75 158 14 163 119 3 78-121 87-175 55-17-10-28-26-33-46l33-7c5 56 141 63 141-1 0-78-155-14-162-118-5-82 145-84 179-34 5 7 8 16 11 25" id="r"/><path d="M114-163C36-179 61-72 57 0H25l-1-190h30c1 12-1 29 2 39 6-27 23-49 58-41v29" id="s"/><g id="b"><use transform="matrix(0.05,0,0,0.05,0,0)" xlink:href="#r"/><use transform="matrix(0.05,0,0,0.05,12,0)" xlink:href="#q"/><use transform="matrix(0.05,0,0,0.05,17,0)" xlink:href="#n"/><use transform="matrix(0.05,0,0,0.05,27,0)" xlink:href="#s"/><use transform="matrix(0.05,0,0,0.05,32.95,0)" xlink:href="#q"/></g><path d="M63-220v92h138v28H63V0H30v-248h175v28H63" id="t"/><path d="M100-194c62-1 85 37 85 99 1 63-27 99-86 99S16-35 15-95c0-66 28-99 85-99zM99-20c44 1 53-31 53-75 0-43-8-75-51-75s-53 32-53 75 10 74 51 75" id="u"/><path d="M206 0h-36l-40-164L89 0H53L-1-190h32L70-26l43-164h34l41 164 42-164h31" id="v"/><g id="c"><use transform="matrix(0.05,0,0,0.05,0,0)" xlink:href="#t"/><use transform="matrix(0.05,0,0,0.05,10.950000000000001,0)" xlink:href="#p"/><use transform="matrix(0.05,0,0,0.05,14.9,0)" xlink:href="#u"/><use transform="matrix(0.05,0,0,0.05,24.900000000000002,0)" xlink:href="#v"/></g><path d="M212-179c-10-28-35-45-73-45-59 0-87 40-87 99 0 60 29 101 89 101 43 0 62-24 78-52l27 14C228-24 195 4 139 4 59 4 22-46 18-125c-6-104 99-153 187-111 19 9 31 26 39 46" id="w"/><path d="M135-143c-3-34-86-38-87 0 15 53 115 12 119 90S17 21 10-45l28-5c4 36 97 45 98 0-10-56-113-15-118-90-4-57 82-63 122-42 12 7 21 19 24 35" id="x"/><path d="M210-169c-67 3-38 105-44 169h-31v-121c0-29-5-50-35-48C34-165 62-65 56 0H25l-1-190h30c1 10-1 24 2 32 10-44 99-50 107 0 11-21 27-35 58-36 85-2 47 119 55 194h-31v-121c0-29-5-49-35-48" id="y"/><g id="d"><use transform="matrix(0.05,0,0,0.05,0,0)" xlink:href="#w"/><use transform="matrix(0.05,0,0,0.05,12.950000000000001,0)" xlink:href="#o"/><use transform="matrix(0.05,0,0,0.05,22.950000000000003,0)" xlink:href="#x"/><use transform="matrix(0.05,0,0,0.05,31.950000000000003,0)" xlink:href="#q"/><use transform="matrix(0.05,0,0,0.05,36.95,0)" xlink:href="#u"/><use transform="matrix(0.05,0,0,0.05,46.95,0)" xlink:href="#y"/><use transform="matrix(0.05,0,0,0.05,61.900000000000006,0)" xlink:href="#l"/><use transform="matrix(0.05,0,0,0.05,71.9,0)" xlink:href="#s"/></g><path d="M33 0v-248h34V0H33" id="z"/><path d="M117-194c89-4 53 116 60 194h-32v-121c0-31-8-49-39-48C34-167 62-67 57 0H25l-1-190h30c1 10-1 24 2 32 11-22 29-35 61-36" id="A"/><path d="M24-231v-30h32v30H24zM24 0v-190h32V0H24" id="B"/><g id="e"><use transform="matrix(0.05,0,0,0.05,0,0)" xlink:href="#z"/><use transform="matrix(0.05,0,0,0.05,5,0)" xlink:href="#A"/><use transform="matrix(0.05,0,0,0.05,15,0)" xlink:href="#m"/><use transform="matrix(0.05,0,0,0.05,20,0)" xlink:href="#u"/><use transform="matrix(0.05,0,0,0.05,30,0)" xlink:href="#s"/><use transform="matrix(0.05,0,0,0.05,35.95,0)" xlink:href="#y"/><use transform="matrix(0.05,0,0,0.05,50.900000000000006,0)" xlink:href="#n"/><use transform="matrix(0.05,0,0,0.05,60.900000000000006,0)" xlink:href="#q"/><use transform="matrix(0.05,0,0,0.05,65.9,0)" xlink:href="#B"/><use transform="matrix(0.05,0,0,0.05,69.85000000000001,0)" xlink:href="#u"/><use transform="matrix(0.05,0,0,0.05,79.85000000000001,0)" xlink:href="#A"/></g><path d="M85-194c31 0 48 13 60 33l-1-100h32l1 261h-30c-2-10 0-23-3-31C134-8 116 4 85 4 32 4 16-35 15-94c0-66 23-100 70-100zm9 24c-40 0-46 34-46 75 0 40 6 74 45 74 42 0 51-32 51-76 0-42-9-74-50-73" id="C"/><g id="f"><use transform="matrix(0.05,0,0,0.05,0,0)" xlink:href="#t"/><use transform="matrix(0.05,0,0,0.05,10.950000000000001,0)" xlink:href="#u"/><use transform="matrix(0.05,0,0,0.05,20.950000000000003,0)" xlink:href="#u"/><use transform="matrix(0.05,0,0,0.05,30.950000000000003,0)" xlink:href="#C"/></g><g id="g"><use transform="matrix(0.05,0,0,0.05,0,0)" xlink:href="#u"/><use transform="matrix(0.05,0,0,0.05,10,0)" xlink:href="#s"/><use transform="matrix(0.05,0,0,0.05,15.949999999999998,0)" xlink:href="#C"/><use transform="matrix(0.05,0,0,0.05,25.950000000000003,0)" xlink:href="#l"/><use transform="matrix(0.05,0,0,0.05,35.95,0)" xlink:href="#s"/></g><g id="h"><use transform="matrix(0.05,0,0,0.05,0,0)" xlink:href="#w"/><use transform="matrix(0.05,0,0,0.05,12.950000000000001,0)" xlink:href="#u"/><use transform="matrix(0.05,0,0,0.05,22.950000000000003,0)" xlink:href="#A"/><use transform="matrix(0.05,0,0,0.05,32.95,0)" xlink:href="#m"/><use transform="matrix(0.05,0,0,0.05,37.95,0)" xlink:href="#B"/><use transform="matrix(0.05,0,0,0.05,41.900000000000006,0)" xlink:href="#s"/><use transform="matrix(0.05,0,0,0.05,47.85000000000001,0)" xlink:href="#y"/><use transform="matrix(0.05,0,0,0.05,62.80000000000001,0)" xlink:href="#n"/><use transform="matrix(0.05,0,0,0.05,72.80000000000001,0)" xlink:href="#q"/><use transform="matrix(0.05,0,0,0.05,77.80000000000001,0)" xlink:href="#B"/><use transform="matrix(0.05,0,0,0.05,81.75000000000001,0)" xlink:href="#u"/><use transform="matrix(0.05,0,0,0.05,91.75000000000001,0)" xlink:href="#A"/></g><path d="M30 0v-248h187v28H63v79h144v27H63v87h162V0H30" id="D"/><g id="i"><use transform="matrix(0.05,0,0,0.05,0,0)" xlink:href="#D"/><use transform="matrix(0.05,0,0,0.05,12,0)" xlink:href="#A"/><use transform="matrix(0.05,0,0,0.05,22,0)" xlink:href="#C"/></g><g id="j"><use transform="matrix(0.05,0,0,0.05,0,0)" xlink:href="#x"/><use transform="matrix(0.05,0,0,0.05,9,0)" xlink:href="#l"/><use transform="matrix(0.05,0,0,0.05,19,0)" xlink:href="#x"/><use transform="matrix(0.05,0,0,0.05,28,0)" xlink:href="#x"/><use transform="matrix(0.05,0,0,0.05,37,0)" xlink:href="#B"/><use transform="matrix(0.05,0,0,0.05,40.95,0)" xlink:href="#u"/><use transform="matrix(0.05,0,0,0.05,50.95,0)" xlink:href="#A"/></g></defs></g></svg>