<svg xmlns="http://www.w3.org/2000/svg" xmlns:xlink="http://www.w3.org/1999/xlink" xmlns:lucid="lucid" width="780" height="440"><g transform="translate(-100 -100)" lucid:page-tab-id="0_0"><path d="M0 0h1760v1360H0z" fill="#fff"/><path d="M120 340h180v60H120z" stroke="#666" fill="#e3f2fd"/><use xlink:href="#a" transform="matrix(1,0,0,1,125,345) translate(31.574999999999996 30.025)"/><use xlink:href="#b" transform="matrix(1,0,0,1,125,345) translate(103.475 30.025)"/><path d="M120 220h180v60H120z" stroke="#666" fill="#e3f2fd"/><use xlink:href="#c" transform="matrix(1,0,0,1,125,225) translate(45.575 30.025)"/><use xlink:href="#d" transform="matrix(1,0,0,1,125,225) translate(82.575 30.025)"/><path d="M680 220h180v60H680z" stroke="#666" fill="#e3f2fd"/><use xlink:href="#e" transform="matrix(1,0,0,1,685,225) translate(6.125 30.025)"/><use xlink:href="#f" transform="matrix(1,0,0,1,685,225) translate(54.025000000000006 30.025)"/><use xlink:href="#g" transform="matrix(1,0,0,1,685,225) translate(101.92500000000001 30.025)"/><path d="M680 340h180v60H680z" stroke="#666" fill="#e3f2fd"/><use xlink:href="#h" transform="matrix(1,0,0,1,685,345) translate(10.125 30.025)"/><use xlink:href="#f" transform="matrix(1,0,0,1,685,345) translate(50.025000000000006 30.025)"/><use xlink:href="#g" transform="matrix(1,0,0,1,685,345) translate(97.92500000000001 30.025)"/><path d="M540 280h120v60H540z" stroke="#666" fill="#e3f2fd"/><use xlink:href="#c" transform="matrix(1,0,0,1,545,285) translate(14.524999999999999 30.025)"/><use xlink:href="#i" transform="matrix(1,0,0,1,545,285) translate(51.525 30.025)"/><path d="M320 460h180v60H320z" stroke="#666" fill="#fff8e1"/><use xlink:href="#j" transform="matrix(1,0,0,1,325,465) translate(34.12499999999999 30.025)"/><path d="M320 280h180v60H320z" stroke="#666" fill="#e3f2fd"/><use xlink:href="#k" transform="matrix(1,0,0,1,325,285) translate(44.074999999999996 30.025)"/><use xlink:href="#l" transform="matrix(1,0,0,1,325,285) translate(80.025 30.025)"/><path d="M320 120h180v60H320z" stroke="#666" fill="#fff8e1"/><use xlink:href="#m" transform="matrix(1,0,0,1,325,125) translate(66.025 30.025)"/><path d="M410 181.5V261" stroke="#666" stroke-width="2" fill="none"/><path d="M411 181.53h-2v-1.03h2z" fill="#666"/><path d="M410 276.26L405.36 262h9.28z" stroke="#666" stroke-width="2" fill="#666"/><path d="M410 341.5V441" stroke="#666" stroke-width="2" fill="none"/><path d="M411 341.53h-2v-1.03h2z" fill="#666"/><path d="M410 456.26L405.36 442h9.28z" stroke="#666" stroke-width="2" fill="#666"/><path d="M501.5 310H521" stroke="#666" stroke-width="2" fill="none"/><path d="M501.53 311h-1.03v-2h1.03z" fill="#666"/><path d="M536.26 310L522 314.64v-9.28z" stroke="#666" stroke-width="2" fill="#666"/><path d="M600 278.5V250h61" stroke="#666" stroke-width="2" fill="none"/><path d="M601 279.5h-2v-1.03h2z" fill="#666"/><path d="M676.26 250L662 254.64v-9.28z" stroke="#666" stroke-width="2" fill="#666"/><path d="M600 341.5V370h61" stroke="#666" stroke-width="2" fill="none"/><path d="M601 341.53h-2v-1.03h2z" fill="#666"/><path d="M676.26 370L662 374.64v-9.28z" stroke="#666" stroke-width="2" fill="#666"/><path d="M770 401.5V420H456.67v-61" stroke="#666" stroke-width="2" fill="none"/><path d="M771 401.53h-2v-1.03h2z" fill="#666"/><path d="M456.67 343.74L461.3 358h-9.27z" stroke="#666" stroke-width="2" fill="#666"/><path d="M762 218.5V200H459.33v61" stroke="#666" stroke-width="2" fill="none"/><path d="M763 219.5h-2v-1.03h2z" fill="#666"/><path d="M459.33 276.26L454.7 262h9.27z" stroke="#666" stroke-width="2" fill="#666"/><path d="M356.67 261v-11H319" stroke="#666" stroke-width="2" fill="none"/><path d="M356.67 276.26L352.03 262h9.27zM303.74 250l14.26-4.64v9.28z" stroke="#666" stroke-width="2" fill="#666"/><path d="M355.33 359v11H319" stroke="#666" stroke-width="2" fill="none"/><path d="M355.33 343.74l4.64 14.26h-9.27zM303.74 370l14.26-4.64v9.28z" stroke="#666" stroke-width="2" fill="#666"/><defs><path d="M233-177c-1 41-23 64-60 70L243 0h-38l-65-103H63V0H30v-248c88 3 205-21 203 71zM63-129c60-2 137 13 137-47 0-61-80-42-137-45v92" id="n"/><path d="M100-194c63 0 86 42 84 106H49c0 40 14 67 53 68 26 1 43-12 49-29l28 8c-11 28-37 45-77 45C44 4 14-33 15-96c1-61 26-98 85-98zm52 81c6-60-76-77-97-28-3 7-6 17-6 28h103" id="o"/><path d="M210-169c-67 3-38 105-44 169h-31v-121c0-29-5-50-35-48C34-165 62-65 56 0H25l-1-190h30c1 10-1 24 2 32 10-44 99-50 107 0 11-21 27-35 58-36 85-2 47 119 55 194h-31v-121c0-29-5-49-35-48" id="p"/><path d="M100-194c62-1 85 37 85 99 1 63-27 99-86 99S16-35 15-95c0-66 28-99 85-99zM99-20c44 1 53-31 53-75 0-43-8-75-51-75s-53 32-53 75 10 74 51 75" id="q"/><path d="M108 0H70L1-190h34L89-25l56-165h34" id="r"/><g id="a"><use transform="matrix(0.05,0,0,0.05,0,0)" xlink:href="#n"/><use transform="matrix(0.05,0,0,0.05,12.950000000000001,0)" xlink:href="#o"/><use transform="matrix(0.05,0,0,0.05,22.950000000000003,0)" xlink:href="#p"/><use transform="matrix(0.05,0,0,0.05,37.900000000000006,0)" xlink:href="#q"/><use transform="matrix(0.05,0,0,0.05,47.900000000000006,0)" xlink:href="#r"/><use transform="matrix(0.05,0,0,0.05,56.900000000000006,0)" xlink:href="#o"/></g><path d="M33 0v-248h34V0H33" id="s"/><path d="M59-47c-2 24 18 29 38 22v24C64 9 27 4 27-40v-127H5v-23h24l9-43h21v43h35v23H59v120" id="t"/><g id="b"><use transform="matrix(0.05,0,0,0.05,0,0)" xlink:href="#s"/><use transform="matrix(0.05,0,0,0.05,5,0)" xlink:href="#t"/><use transform="matrix(0.05,0,0,0.05,10,0)" xlink:href="#o"/><use transform="matrix(0.05,0,0,0.05,20,0)" xlink:href="#p"/></g><path d="M205 0l-28-72H64L36 0H1l101-248h38L239 0h-34zm-38-99l-47-123c-12 45-31 82-46 123h93" id="u"/><path d="M85-194c31 0 48 13 60 33l-1-100h32l1 261h-30c-2-10 0-23-3-31C134-8 116 4 85 4 32 4 16-35 15-94c0-66 23-100 70-100zm9 24c-40 0-46 34-46 75 0 40 6 74 45 74 42 0 51-32 51-76 0-42-9-74-50-73" id="v"/><g id="c"><use transform="matrix(0.05,0,0,0.05,0,0)" xlink:href="#u"/><use transform="matrix(0.05,0,0,0.05,12,0)" xlink:href="#v"/><use transform="matrix(0.05,0,0,0.05,22,0)" xlink:href="#v"/></g><path d="M30-248c118-7 216 8 213 122C240-48 200 0 122 0H30v-248zM63-27c89 8 146-16 146-99s-60-101-146-95v194" id="w"/><path d="M114-163C36-179 61-72 57 0H25l-1-190h30c1 12-1 29 2 39 6-27 23-49 58-41v29" id="x"/><path d="M24-231v-30h32v30H24zM24 0v-190h32V0H24" id="y"/><path d="M117-194c89-4 53 116 60 194h-32v-121c0-31-8-49-39-48C34-167 62-67 57 0H25l-1-190h30c1 10-1 24 2 32 11-22 29-35 61-36" id="z"/><path d="M143 0L79-87 56-68V0H24v-261h32v163l83-92h37l-77 82L181 0h-38" id="A"/><g id="d"><use transform="matrix(0.05,0,0,0.05,0,0)" xlink:href="#w"/><use transform="matrix(0.05,0,0,0.05,12.950000000000001,0)" xlink:href="#x"/><use transform="matrix(0.05,0,0,0.05,18.900000000000002,0)" xlink:href="#y"/><use transform="matrix(0.05,0,0,0.05,22.85,0)" xlink:href="#z"/><use transform="matrix(0.05,0,0,0.05,32.85,0)" xlink:href="#A"/></g><path d="M127-220V0H93v-220H8v-28h204v28h-85" id="B"/><path d="M106-169C34-169 62-67 57 0H25v-261h32l-1 103c12-21 28-36 61-36 89 0 53 116 60 194h-32v-121c2-32-8-49-39-48" id="C"/><path d="M96-169c-40 0-48 33-48 73s9 75 48 75c24 0 41-14 43-38l32 2c-6 37-31 61-74 61-59 0-76-41-82-99-10-93 101-131 147-64 4 7 5 14 7 22l-32 3c-4-21-16-35-41-35" id="D"/><g id="e"><use transform="matrix(0.05,0,0,0.05,0,0)" xlink:href="#B"/><use transform="matrix(0.05,0,0,0.05,10.950000000000001,0)" xlink:href="#C"/><use transform="matrix(0.05,0,0,0.05,20.950000000000003,0)" xlink:href="#y"/><use transform="matrix(0.05,0,0,0.05,24.900000000000002,0)" xlink:href="#D"/><use transform="matrix(0.05,0,0,0.05,33.900000000000006,0)" xlink:href="#A"/></g><path d="M212-179c-10-28-35-45-73-45-59 0-87 40-87 99 0 60 29 101 89 101 43 0 62-24 78-52l27 14C228-24 195 4 139 4 59 4 22-46 18-125c-6-104 99-153 187-111 19 9 31 26 39 46" id="E"/><path d="M84 4C-5 8 30-112 23-190h32v120c0 31 7 50 39 49 72-2 45-101 50-169h31l1 190h-30c-1-10 1-25-2-33-11 22-28 36-60 37" id="F"/><path d="M135-143c-3-34-86-38-87 0 15 53 115 12 119 90S17 21 10-45l28-5c4 36 97 45 98 0-10-56-113-15-118-90-4-57 82-63 122-42 12 7 21 19 24 35" id="G"/><g id="f"><use transform="matrix(0.05,0,0,0.05,0,0)" xlink:href="#E"/><use transform="matrix(0.05,0,0,0.05,12.950000000000001,0)" xlink:href="#x"/><use transform="matrix(0.05,0,0,0.05,18.900000000000002,0)" xlink:href="#F"/><use transform="matrix(0.05,0,0,0.05,28.900000000000002,0)" xlink:href="#G"/><use transform="matrix(0.05,0,0,0.05,37.900000000000006,0)" xlink:href="#t"/></g><path d="M140-251c81 0 123 46 123 126C263-46 219 4 140 4 59 4 17-45 17-125s42-126 123-126zm0 227c63 0 89-41 89-101s-29-99-89-99c-61 0-89 39-89 99S79-25 140-24" id="H"/><path d="M115-194c55 1 70 41 70 98S169 2 115 4C84 4 66-9 55-30l1 105H24l-1-265h31l2 30c10-21 28-34 59-34zm-8 174c40 0 45-34 45-75s-6-73-45-74c-42 0-51 32-51 76 0 43 10 73 51 73" id="I"/><g id="g"><use transform="matrix(0.05,0,0,0.05,0,0)" xlink:href="#H"/><use transform="matrix(0.05,0,0,0.05,14,0)" xlink:href="#I"/><use transform="matrix(0.05,0,0,0.05,24,0)" xlink:href="#t"/><use transform="matrix(0.05,0,0,0.05,29,0)" xlink:href="#y"/><use transform="matrix(0.05,0,0,0.05,32.95,0)" xlink:href="#q"/><use transform="matrix(0.05,0,0,0.05,42.95,0)" xlink:href="#z"/><use transform="matrix(0.05,0,0,0.05,52.95,0)" xlink:href="#G"/></g><g id="h"><use transform="matrix(0.05,0,0,0.05,0,0)" xlink:href="#B"/><use transform="matrix(0.05,0,0,0.05,10.950000000000001,0)" xlink:href="#C"/><use transform="matrix(0.05,0,0,0.05,20.950000000000003,0)" xlink:href="#y"/><use transform="matrix(0.05,0,0,0.05,24.900000000000002,0)" xlink:href="#z"/></g><path d="M30-248c87 1 191-15 191 75 0 78-77 80-158 76V0H30v-248zm33 125c57 0 124 11 124-50 0-59-68-47-124-48v98" id="J"/><path d="M9 0v-24l116-142H16v-24h144v24L44-24h123V0H9" id="K"/><path d="M141-36C126-15 110 5 73 4 37 3 15-17 15-53c-1-64 63-63 125-63 3-35-9-54-41-54-24 1-41 7-42 31l-33-3c5-37 33-52 76-52 45 0 72 20 72 64v82c-1 20 7 32 28 27v20c-31 9-61-2-59-35zM48-53c0 20 12 33 32 33 41-3 63-29 60-74-43 2-92-5-92 41" id="L"/><g id="i"><use transform="matrix(0.05,0,0,0.05,0,0)" xlink:href="#J"/><use transform="matrix(0.05,0,0,0.05,12,0)" xlink:href="#y"/><use transform="matrix(0.05,0,0,0.05,15.949999999999998,0)" xlink:href="#K"/><use transform="matrix(0.05,0,0,0.05,24.95,0)" xlink:href="#K"/><use transform="matrix(0.05,0,0,0.05,33.95,0)" xlink:href="#L"/></g><path d="M101-234c-31-9-42 10-38 44h38v23H63V0H32v-167H5v-23h27c-7-52 17-82 69-68v24" id="M"/><g id="j"><use transform="matrix(0.05,0,0,0.05,0,0)" xlink:href="#E"/><use transform="matrix(0.05,0,0,0.05,12.950000000000001,0)" xlink:href="#q"/><use transform="matrix(0.05,0,0,0.05,22.950000000000003,0)" xlink:href="#z"/><use transform="matrix(0.05,0,0,0.05,32.95,0)" xlink:href="#M"/><use transform="matrix(0.05,0,0,0.05,37.95,0)" xlink:href="#y"/><use transform="matrix(0.05,0,0,0.05,41.900000000000006,0)" xlink:href="#x"/><use transform="matrix(0.05,0,0,0.05,47.85000000000001,0)" xlink:href="#p"/><use transform="matrix(0.05,0,0,0.05,62.80000000000001,0)" xlink:href="#L"/><use transform="matrix(0.05,0,0,0.05,72.80000000000001,0)" xlink:href="#t"/><use transform="matrix(0.05,0,0,0.05,77.80000000000001,0)" xlink:href="#y"/><use transform="matrix(0.05,0,0,0.05,81.75000000000001,0)" xlink:href="#q"/><use transform="matrix(0.05,0,0,0.05,91.75000000000001,0)" xlink:href="#z"/></g><path d="M30 0v-248h187v28H63v79h144v27H63v87h162V0H30" id="N"/><g id="k"><use transform="matrix(0.05,0,0,0.05,0,0)" xlink:href="#N"/><use transform="matrix(0.05,0,0,0.05,12,0)" xlink:href="#v"/><use transform="matrix(0.05,0,0,0.05,22,0)" xlink:href="#y"/><use transform="matrix(0.05,0,0,0.05,25.950000000000003,0)" xlink:href="#t"/></g><g id="l"><use transform="matrix(0.05,0,0,0.05,0,0)" xlink:href="#H"/><use transform="matrix(0.05,0,0,0.05,14,0)" xlink:href="#x"/><use transform="matrix(0.05,0,0,0.05,19.95,0)" xlink:href="#v"/><use transform="matrix(0.05,0,0,0.05,29.950000000000003,0)" xlink:href="#o"/><use transform="matrix(0.05,0,0,0.05,39.95,0)" xlink:href="#x"/></g><path d="M185-189c-5-48-123-54-124 2 14 75 158 14 163 119 3 78-121 87-175 55-17-10-28-26-33-46l33-7c5 56 141 63 141-1 0-78-155-14-162-118-5-82 145-84 179-34 5 7 8 16 11 25" id="O"/><g id="m"><use transform="matrix(0.05,0,0,0.05,0,0)" xlink:href="#O"/><use transform="matrix(0.05,0,0,0.05,12,0)" xlink:href="#t"/><use transform="matrix(0.05,0,0,0.05,17,0)" xlink:href="#L"/><use transform="matrix(0.05,0,0,0.05,27,0)" xlink:href="#x"/><use transform="matrix(0.05,0,0,0.05,32.95,0)" xlink:href="#t"/></g></defs></g></svg>